<svg width="56" height="56" viewBox="0 0 56 56" fill="none" xmlns="http://www.w3.org/2000/svg">
<g filter="url(#filter0_d)">
<circle cx="28" cy="24" r="20" fill="white"/>
</g>
<path fill-rule="evenodd" clip-rule="evenodd" d="M17.9039 19.5769H38.0962V32.5577H17.9039V19.5769ZM19.3462 21.0192V31.1154H36.6539V21.0192H19.3462Z" fill="#F531B1"/>
<path fill-rule="evenodd" clip-rule="evenodd" d="M27.6825 28.0835L18.1888 20.8719L19.0612 19.7234L28.1131 26.5994L36.9318 19.7288L37.8182 20.8666L28.5619 28.0781L27.6825 28.0835Z" fill="#F531B1"/>
<path fill-rule="evenodd" clip-rule="evenodd" d="M18.1626 19.7448L27.6563 11.8122L28.588 11.818L37.8443 19.7507L36.9058 20.8458L28.1128 13.3102L19.0874 20.8516L18.1626 19.7448Z" fill="#F531B1"/>
<path d="M39.5385 20.2981C39.5385 21.4929 38.5699 22.4616 37.375 22.4616C36.1802 22.4616 35.2115 21.4929 35.2115 20.2981C35.2115 19.1032 36.1802 18.1346 37.375 18.1346C38.5699 18.1346 39.5385 19.1032 39.5385 20.2981Z" fill="#F531B1"/>
<path d="M39.5385 31.8366C39.5385 33.0314 38.5699 34 37.375 34C36.1802 34 35.2115 33.0314 35.2115 31.8366C35.2115 30.6417 36.1802 29.6731 37.375 29.6731C38.5699 29.6731 39.5385 30.6417 39.5385 31.8366Z" fill="#F531B1"/>
<path d="M30.1635 26.9547C30.1635 28.1495 29.1949 29.1181 28 29.1181C26.8052 29.1181 25.8365 28.1495 25.8365 26.9547C25.8365 25.7598 26.8052 24.7912 28 24.7912C29.1949 24.7912 30.1635 25.7598 30.1635 26.9547Z" fill="#F531B1"/>
<path d="M20.7885 20.2981C20.7885 21.4929 19.8199 22.4616 18.625 22.4616C17.4302 22.4616 16.4615 21.4929 16.4615 20.2981C16.4615 19.1032 17.4302 18.1346 18.625 18.1346C19.8199 18.1346 20.7885 19.1032 20.7885 20.2981Z" fill="#F531B1"/>
<path d="M20.7885 31.8366C20.7885 33.0314 19.8199 34 18.625 34C17.4302 34 16.4615 33.0314 16.4615 31.8366C16.4615 30.6417 17.4302 29.6731 18.625 29.6731C19.8199 29.6731 20.7885 30.6417 20.7885 31.8366Z" fill="#F531B1"/>
<path d="M30.1635 13.0866C30.1635 14.2814 29.1949 15.25 28 15.25C26.8052 15.25 25.8365 14.2814 25.8365 13.0866C25.8365 11.8917 26.8052 10.9231 28 10.9231C29.1949 10.9231 30.1635 11.8917 30.1635 13.0866Z" fill="#F531B1"/>
<defs>
<filter id="filter0_d" x="0" y="0" width="56" height="56" filterUnits="userSpaceOnUse" color-interpolation-filters="sRGB">
<feFlood flood-opacity="0" result="BackgroundImageFix"/>
<feColorMatrix in="SourceAlpha" type="matrix" values="0 0 0 0 0 0 0 0 0 0 0 0 0 0 0 0 0 0 127 0"/>
<feOffset dy="4"/>
<feGaussianBlur stdDeviation="4"/>
<feColorMatrix type="matrix" values="0 0 0 0 0.0313726 0 0 0 0 0.0666667 0 0 0 0 0.27451 0 0 0 0.1 0"/>
<feBlend mode="normal" in2="BackgroundImageFix" result="effect1_dropShadow"/>
<feBlend mode="normal" in="SourceGraphic" in2="effect1_dropShadow" result="shape"/>
</filter>
</defs>
</svg>
