<svg width="164" height="165" viewBox="0 0 164 165" fill="none" xmlns="http://www.w3.org/2000/svg">
<path fill-rule="evenodd" clip-rule="evenodd" d="M10.2499 61.54H153.75V153.79H10.2499V61.54ZM20.4999 71.79V143.54H143.5V71.79H20.4999Z" fill="white"/>
<path fill-rule="evenodd" clip-rule="evenodd" d="M79.7434 121.993L12.275 70.7432L18.4752 62.581L82.8039 111.446L145.475 62.6192L151.775 70.705L85.9932 121.955L79.7434 121.993Z" fill="white"/>
<path fill-rule="evenodd" clip-rule="evenodd" d="M12.0889 62.7332L79.5573 6.35823L86.1784 6.39956L151.96 62.7746L145.29 70.5575L82.8015 17.0047L18.6612 70.5988L12.0889 62.7332Z" fill="white"/>
<path d="M164 66.665C164 75.1564 157.116 82.04 148.625 82.04C140.134 82.04 133.25 75.1564 133.25 66.665C133.25 58.1736 140.134 51.29 148.625 51.29C157.116 51.29 164 58.1736 164 66.665Z" fill="white"/>
<path d="M164 148.665C164 157.156 157.116 164.04 148.625 164.04C140.134 164.04 133.25 157.156 133.25 148.665C133.25 140.174 140.134 133.29 148.625 133.29C157.116 133.29 164 140.174 164 148.665Z" fill="white"/>
<path d="M97.375 113.971C97.375 122.463 90.4913 129.346 82 129.346C73.5086 129.346 66.625 122.463 66.625 113.971C66.625 105.48 73.5086 98.5962 82 98.5962C90.4913 98.5962 97.375 105.48 97.375 113.971Z" fill="white"/>
<path d="M30.7499 66.665C30.7499 75.1564 23.8663 82.04 15.3749 82.04C6.88356 82.04 -6.10352e-05 75.1564 -6.10352e-05 66.665C-6.10352e-05 58.1736 6.88356 51.29 15.3749 51.29C23.8663 51.29 30.7499 58.1736 30.7499 66.665Z" fill="white"/>
<path d="M30.7499 148.665C30.7499 157.156 23.8663 164.04 15.3749 164.04C6.88356 164.04 -6.10352e-05 157.156 -6.10352e-05 148.665C-6.10352e-05 140.174 6.88356 133.29 15.3749 133.29C23.8663 133.29 30.7499 140.174 30.7499 148.665Z" fill="white"/>
<path d="M97.375 15.415C97.375 23.9064 90.4913 30.79 82 30.79C73.5086 30.79 66.625 23.9064 66.625 15.415C66.625 6.9236 73.5086 0.039978 82 0.039978C90.4913 0.039978 97.375 6.9236 97.375 15.415Z" fill="white"/>
</svg>